<svg viewBox="0 -37 434.012 434" xmlns="http://www.w3.org/2000/svg"><path d="m156.292969 181.984375c-1.859375.003906-3.640625-.734375-4.949219-2.050781l-54.292969-54.289063c-2.734375-2.734375-2.734375-7.167969 0-9.902343 2.734375-2.734376 7.167969-2.734376 9.902344 0l49.449219 49.453124 90.765625-86.691406c2.792969-2.671875 7.226562-2.570312 9.894531.226563 2.671875 2.792969 2.570312 7.226562-.226562 9.894531l-95.707032 91.421875c-1.304687 1.242187-3.035156 1.9375-4.835937 1.9375zm0 0" fill="#1ae5be"/><path d="m275.953125 359.921875c-3.800781.011719-7.339844-1.933594-9.371094-5.144531-.03125-.046875-.058593-.089844-.085937-.136719l-31.476563-52.101563h-39.765625c-3.867187 0-7-3.132812-7-7 0-3.863281 3.132813-7 7-7h43.714844c2.449219 0 4.722656 1.28125 5.992188 3.378907l31 51.300781 31-51.300781c1.265624-2.097657 3.539062-3.378907 5.988281-3.378907h84.0625c12.695312-.011718 22.984375-10.300781 23-23v-161.914062c-.011719-12.695312-10.304688-22.984375-23-23h-50c-3.867188 0-7-3.132812-7-7 0-3.863281 3.132812-7 7-7h50c20.425781.023438 36.976562 16.574219 37 37v161.917969c-.023438 20.425781-16.574219 36.976562-37 37h-80.121094l-31.480469 52.101562c-.023437.046875-.054687.089844-.082031.136719-2.035156 3.210938-5.574219 5.152344-9.375 5.140625zm0 0" fill="#1ae5be"/><path d="m41.003906 265.511719h88.941406l35.949219 59.496093c.027344.042969.054688.089844.085938.136719 2.128906 3.371094 5.84375 5.410157 9.832031 5.398438 3.988281.011719 7.703125-2.027344 9.835938-5.398438.027343-.046875.054687-.09375.085937-.140625l35.945313-59.492187h91.320312c22.632812-.027344 40.972656-18.367188 41-41v-183.503907c-.027344-22.632812-18.367188-40.976562-41-40.9999995h-272c-22.632812.0234375-40.9726562 18.3671875-41 40.9999995v183.503907c.0273438 22.636719 18.367188 40.976562 41.003906 41zm-27-224.503907c.015625-14.90625 12.09375-26.984374 27-27h272c14.902344.015626 26.980469 12.09375 27 27v183.503907c-.019531 14.90625-12.097656 26.984375-27 27h-95.273437c-2.449219 0-4.722657 1.285156-5.988281 3.382812l-35.929688 59.460938-35.925781-59.460938c-1.265625-2.097656-3.539063-3.378906-5.992188-3.378906h-92.890625c-14.90625-.019531-26.984375-12.097656-27-27zm0 0" fill="#0635c9"/><path d="m179.886719 224.894531c-1.265625-2.101562-3.539063-3.382812-5.992188-3.382812h-92.890625c-14.90625-.015625-26.984375-12.09375-27-27v-180.503907h-13c-14.90625.015626-26.984375 12.09375-27 27v183.503907c.015625 14.90625 12.09375 26.984375 27 27h92.890625c2.453125 0 4.726563 1.28125 5.992188 3.382812l35.925781 59.460938 29.066406-48.101563zm0 0" fill="#d4e1f4"/></svg>